<svg width="698" height="138" viewBox="0 0 698 138" fill="none" xmlns="http://www.w3.org/2000/svg">
<path d="M9.99725 20.051C4.47552 20.051 0 24.5216 0 30.0354C0 35.55 4.47552 40.0204 9.99725 40.0204C15.519 40.0204 19.9954 35.55 19.9954 30.0354C19.9954 24.5215 15.519 20.051 9.99725 20.051Z" fill="#E5594F"/>
<path d="M9.99725 61.0408C4.47552 61.0408 0 65.5114 0 71.0261C0 76.5398 4.47552 81.0102 9.99725 81.0102C15.519 81.0102 19.9954 76.5398 19.9954 71.0261C19.9954 65.5114 15.519 61.0408 9.99725 61.0408Z" fill="#C45FA0"/>
<path d="M9.99725 102.031C4.47552 102.031 0 106.501 0 112.015C0 117.529 4.47552 122 9.99725 122C15.519 122 19.9954 117.53 19.9954 112.015C19.9954 106.501 15.519 102.031 9.99725 102.031Z" fill="#F39A2B"/>
<path d="M166.645 19H53.8299C48.5111 19 44.2004 23.3159 44.2004 28.6403V29.329C44.2004 34.6533 48.5111 38.9694 53.8299 38.9694H166.645C171.964 38.9694 176.275 34.6533 176.275 29.329V28.6403C176.275 23.3159 171.964 19 166.645 19Z" fill="#F0D043"/>
<path d="M166.645 101.505H53.8299C48.5111 101.505 44.2004 105.821 44.2004 111.145V111.834C44.2004 117.158 48.5111 121.474 53.8299 121.474H166.645C171.964 121.474 176.275 117.158 176.275 111.834V111.145C176.275 105.821 171.964 101.505 166.645 101.505Z" fill="#4A5699"/>
<path d="M124.02 60.5153H53.8328C48.5125 60.5153 44.2004 64.8311 44.2004 70.1557V70.8443C44.2004 76.1696 48.5125 80.4847 53.8328 80.4847H124.02C129.34 80.4847 133.654 76.1696 133.654 70.8443V70.1557C133.654 64.8311 129.34 60.5153 124.02 60.5153Z" fill="#E5594F"/>
<mask id="path-7-outside-1_2_12" maskUnits="userSpaceOnUse" x="201" y="26" width="484" height="99" fill="black">
<rect fill="white" x="201" y="26" width="484" height="99"/>
<path d="M268.739 59C267.754 55.9872 266.457 53.2876 264.846 50.9013C263.265 48.4851 261.371 46.4268 259.163 44.7266C256.986 43.0263 254.51 41.7287 251.736 40.8338C248.962 39.9389 245.919 39.4915 242.608 39.4915C237.179 39.4915 232.242 40.8935 227.798 43.6974C223.353 46.5014 219.818 50.6328 217.193 56.0916C214.568 61.5504 213.256 68.2472 213.256 76.1818C213.256 84.1165 214.583 90.8132 217.238 96.272C219.893 101.731 223.487 105.862 228.021 108.666C232.555 111.47 237.656 112.872 243.324 112.872C248.574 112.872 253.197 111.754 257.195 109.516C261.222 107.249 264.354 104.058 266.591 99.9411C268.858 95.7947 269.991 90.9176 269.991 85.3097L273.392 86.0256H245.83V76.1818H280.73V86.0256C280.73 93.5724 279.119 100.135 275.898 105.713C272.706 111.291 268.291 115.616 262.653 118.689C257.045 121.732 250.602 123.253 243.324 123.253C235.21 123.253 228.081 121.344 221.936 117.526C215.821 113.707 211.048 108.278 207.618 101.239C204.217 94.1989 202.517 85.8466 202.517 76.1818C202.517 68.9332 203.487 62.4155 205.425 56.6285C207.394 50.8118 210.168 45.8601 213.748 41.7734C217.327 37.6868 221.563 34.5547 226.455 32.3771C231.347 30.1996 236.732 29.1108 242.608 29.1108C247.44 29.1108 251.945 29.8416 256.121 31.3033C260.327 32.7351 264.07 34.7784 267.352 37.4332C270.663 40.0582 273.422 43.2053 275.629 46.8743C277.837 50.5135 279.358 54.5554 280.193 59H268.739ZM290.743 122V53.2727H300.945V63.6534H301.661C302.914 60.2528 305.181 57.4936 308.462 55.3757C311.743 53.2578 315.442 52.1989 319.559 52.1989C320.334 52.1989 321.304 52.2138 322.467 52.2436C323.631 52.2734 324.51 52.3182 325.107 52.3778V63.1165C324.749 63.027 323.929 62.8928 322.646 62.7138C321.393 62.505 320.066 62.4006 318.664 62.4006C315.323 62.4006 312.34 63.1016 309.715 64.5036C307.12 65.8757 305.062 67.7848 303.54 70.2308C302.049 72.647 301.303 75.4062 301.303 78.5085V122H290.743ZM330.064 122V53.2727H340.624V122H330.064ZM335.434 41.8182C333.375 41.8182 331.601 41.1172 330.109 39.7152C328.647 38.3132 327.917 36.6278 327.917 34.6591C327.917 32.6903 328.647 31.005 330.109 29.603C331.601 28.201 333.375 27.5 335.434 27.5C337.492 27.5 339.252 28.201 340.713 29.603C342.205 31.005 342.951 32.6903 342.951 34.6591C342.951 36.6278 342.205 38.3132 340.713 39.7152C339.252 41.1172 337.492 41.8182 335.434 41.8182ZM378.356 123.432C372.629 123.432 367.573 121.985 363.188 119.092C358.803 116.168 355.373 112.052 352.897 106.742C350.421 101.403 349.183 95.0938 349.183 87.8153C349.183 80.5966 350.421 74.3324 352.897 69.0227C355.373 63.7131 358.818 59.6115 363.233 56.718C367.648 53.8246 372.748 52.3778 378.535 52.3778C383.01 52.3778 386.545 53.1236 389.14 54.6151C391.765 56.0767 393.763 57.7472 395.136 59.6264C396.538 61.4759 397.626 62.9972 398.402 64.1903H399.297V30.3636H409.856V122H399.655V111.44H398.402C397.626 112.693 396.523 114.274 395.091 116.183C393.659 118.062 391.616 119.748 388.961 121.239C386.306 122.701 382.771 123.432 378.356 123.432ZM379.788 113.946C384.024 113.946 387.604 112.842 390.527 110.635C393.45 108.398 395.672 105.31 397.194 101.373C398.715 97.4055 399.476 92.8267 399.476 87.6364C399.476 82.5057 398.73 78.0163 397.239 74.1683C395.747 70.2905 393.54 67.2777 390.616 65.13C387.693 62.9524 384.084 61.8636 379.788 61.8636C375.314 61.8636 371.585 63.0121 368.602 65.3089C365.649 67.576 363.427 70.6634 361.935 74.571C360.474 78.4489 359.743 82.804 359.743 87.6364C359.743 92.5284 360.489 96.973 361.98 100.97C363.501 104.937 365.739 108.099 368.692 110.456C371.675 112.783 375.373 113.946 379.788 113.946ZM419.523 40.2074V30.3636H488.25V40.2074H459.435V122H448.338V40.2074H419.523ZM489.248 122V53.2727H499.449V63.6534H500.165C501.418 60.2528 503.685 57.4936 506.966 55.3757C510.248 53.2578 513.946 52.1989 518.063 52.1989C518.839 52.1989 519.808 52.2138 520.971 52.2436C522.135 52.2734 523.015 52.3182 523.611 52.3778V63.1165C523.253 63.027 522.433 62.8928 521.15 62.7138C519.897 62.505 518.57 62.4006 517.168 62.4006C513.827 62.4006 510.844 63.1016 508.219 64.5036C505.624 65.8757 503.566 67.7848 502.044 70.2308C500.553 72.647 499.807 75.4062 499.807 78.5085V122H489.248ZM571.881 93.9006V53.2727H582.441V122H571.881V110.366H571.165C569.554 113.857 567.049 116.825 563.648 119.271C560.247 121.687 555.952 122.895 550.762 122.895C546.466 122.895 542.648 121.955 539.307 120.076C535.966 118.167 533.341 115.303 531.432 111.485C529.523 107.637 528.568 102.79 528.568 96.9432V53.2727H539.128V96.2273C539.128 101.239 540.53 105.236 543.334 108.219C546.168 111.202 549.777 112.693 554.162 112.693C556.787 112.693 559.457 112.022 562.171 110.68C564.916 109.337 567.213 107.279 569.062 104.505C570.941 101.731 571.881 98.196 571.881 93.9006ZM642.903 68.6648L633.417 71.3494C632.821 69.7685 631.941 68.2322 630.777 66.7408C629.644 65.2195 628.093 63.9666 626.124 62.9822C624.155 61.9979 621.635 61.5057 618.562 61.5057C614.356 61.5057 610.851 62.4751 608.047 64.4141C605.273 66.3232 603.886 68.7543 603.886 71.7074C603.886 74.3324 604.841 76.4055 606.75 77.9268C608.659 79.4482 611.642 80.7159 615.699 81.7301L625.9 84.2358C632.045 85.7273 636.624 88.0092 639.637 91.0817C642.65 94.1243 644.156 98.0469 644.156 102.849C644.156 106.787 643.022 110.307 640.755 113.409C638.518 116.511 635.386 118.957 631.359 120.747C627.332 122.537 622.649 123.432 617.309 123.432C610.299 123.432 604.498 121.911 599.904 118.868C595.31 115.825 592.402 111.381 591.179 105.534L601.201 103.028C602.156 106.727 603.961 109.501 606.615 111.351C609.3 113.2 612.805 114.125 617.13 114.125C622.052 114.125 625.96 113.081 628.853 110.993C631.777 108.875 633.238 106.339 633.238 103.386C633.238 101 632.403 99.0014 630.733 97.3906C629.062 95.75 626.497 94.527 623.037 93.7216L611.582 91.0369C605.288 89.5455 600.665 87.2337 597.711 84.1016C594.788 80.9396 593.326 76.9872 593.326 72.2443C593.326 68.3665 594.415 64.9361 596.593 61.9531C598.8 58.9702 601.798 56.6285 605.586 54.9283C609.405 53.228 613.73 52.3778 618.562 52.3778C625.363 52.3778 630.703 53.8693 634.581 56.8523C638.488 59.8352 641.263 63.7727 642.903 68.6648ZM682.381 53.2727V62.2216H646.764V53.2727H682.381ZM657.145 36.8068H667.704V102.312C667.704 105.295 668.137 107.533 669.002 109.024C669.897 110.486 671.03 111.47 672.403 111.977C673.805 112.455 675.281 112.693 676.832 112.693C677.996 112.693 678.95 112.634 679.696 112.514C680.442 112.365 681.038 112.246 681.486 112.156L683.633 121.642C682.918 121.911 681.918 122.179 680.636 122.447C679.353 122.746 677.727 122.895 675.758 122.895C672.775 122.895 669.852 122.254 666.989 120.971C664.155 119.688 661.798 117.734 659.919 115.109C658.07 112.484 657.145 109.173 657.145 105.176V36.8068Z"/>
</mask>
<path d="M268.739 59C267.754 55.9872 266.457 53.2876 264.846 50.9013C263.265 48.4851 261.371 46.4268 259.163 44.7266C256.986 43.0263 254.51 41.7287 251.736 40.8338C248.962 39.9389 245.919 39.4915 242.608 39.4915C237.179 39.4915 232.242 40.8935 227.798 43.6974C223.353 46.5014 219.818 50.6328 217.193 56.0916C214.568 61.5504 213.256 68.2472 213.256 76.1818C213.256 84.1165 214.583 90.8132 217.238 96.272C219.893 101.731 223.487 105.862 228.021 108.666C232.555 111.47 237.656 112.872 243.324 112.872C248.574 112.872 253.197 111.754 257.195 109.516C261.222 107.249 264.354 104.058 266.591 99.9411C268.858 95.7947 269.991 90.9176 269.991 85.3097L273.392 86.0256H245.83V76.1818H280.73V86.0256C280.73 93.5724 279.119 100.135 275.898 105.713C272.706 111.291 268.291 115.616 262.653 118.689C257.045 121.732 250.602 123.253 243.324 123.253C235.21 123.253 228.081 121.344 221.936 117.526C215.821 113.707 211.048 108.278 207.618 101.239C204.217 94.1989 202.517 85.8466 202.517 76.1818C202.517 68.9332 203.487 62.4155 205.425 56.6285C207.394 50.8118 210.168 45.8601 213.748 41.7734C217.327 37.6868 221.563 34.5547 226.455 32.3771C231.347 30.1996 236.732 29.1108 242.608 29.1108C247.44 29.1108 251.945 29.8416 256.121 31.3033C260.327 32.7351 264.07 34.7784 267.352 37.4332C270.663 40.0582 273.422 43.2053 275.629 46.8743C277.837 50.5135 279.358 54.5554 280.193 59H268.739ZM290.743 122V53.2727H300.945V63.6534H301.661C302.914 60.2528 305.181 57.4936 308.462 55.3757C311.743 53.2578 315.442 52.1989 319.559 52.1989C320.334 52.1989 321.304 52.2138 322.467 52.2436C323.631 52.2734 324.51 52.3182 325.107 52.3778V63.1165C324.749 63.027 323.929 62.8928 322.646 62.7138C321.393 62.505 320.066 62.4006 318.664 62.4006C315.323 62.4006 312.34 63.1016 309.715 64.5036C307.12 65.8757 305.062 67.7848 303.54 70.2308C302.049 72.647 301.303 75.4062 301.303 78.5085V122H290.743ZM330.064 122V53.2727H340.624V122H330.064ZM335.434 41.8182C333.375 41.8182 331.601 41.1172 330.109 39.7152C328.647 38.3132 327.917 36.6278 327.917 34.6591C327.917 32.6903 328.647 31.005 330.109 29.603C331.601 28.201 333.375 27.5 335.434 27.5C337.492 27.5 339.252 28.201 340.713 29.603C342.205 31.005 342.951 32.6903 342.951 34.6591C342.951 36.6278 342.205 38.3132 340.713 39.7152C339.252 41.1172 337.492 41.8182 335.434 41.8182ZM378.356 123.432C372.629 123.432 367.573 121.985 363.188 119.092C358.803 116.168 355.373 112.052 352.897 106.742C350.421 101.403 349.183 95.0938 349.183 87.8153C349.183 80.5966 350.421 74.3324 352.897 69.0227C355.373 63.7131 358.818 59.6115 363.233 56.718C367.648 53.8246 372.748 52.3778 378.535 52.3778C383.01 52.3778 386.545 53.1236 389.14 54.6151C391.765 56.0767 393.763 57.7472 395.136 59.6264C396.538 61.4759 397.626 62.9972 398.402 64.1903H399.297V30.3636H409.856V122H399.655V111.44H398.402C397.626 112.693 396.523 114.274 395.091 116.183C393.659 118.062 391.616 119.748 388.961 121.239C386.306 122.701 382.771 123.432 378.356 123.432ZM379.788 113.946C384.024 113.946 387.604 112.842 390.527 110.635C393.45 108.398 395.672 105.31 397.194 101.373C398.715 97.4055 399.476 92.8267 399.476 87.6364C399.476 82.5057 398.73 78.0163 397.239 74.1683C395.747 70.2905 393.54 67.2777 390.616 65.13C387.693 62.9524 384.084 61.8636 379.788 61.8636C375.314 61.8636 371.585 63.0121 368.602 65.3089C365.649 67.576 363.427 70.6634 361.935 74.571C360.474 78.4489 359.743 82.804 359.743 87.6364C359.743 92.5284 360.489 96.973 361.98 100.97C363.501 104.937 365.739 108.099 368.692 110.456C371.675 112.783 375.373 113.946 379.788 113.946ZM419.523 40.2074V30.3636H488.25V40.2074H459.435V122H448.338V40.2074H419.523ZM489.248 122V53.2727H499.449V63.6534H500.165C501.418 60.2528 503.685 57.4936 506.966 55.3757C510.248 53.2578 513.946 52.1989 518.063 52.1989C518.839 52.1989 519.808 52.2138 520.971 52.2436C522.135 52.2734 523.015 52.3182 523.611 52.3778V63.1165C523.253 63.027 522.433 62.8928 521.15 62.7138C519.897 62.505 518.57 62.4006 517.168 62.4006C513.827 62.4006 510.844 63.1016 508.219 64.5036C505.624 65.8757 503.566 67.7848 502.044 70.2308C500.553 72.647 499.807 75.4062 499.807 78.5085V122H489.248ZM571.881 93.9006V53.2727H582.441V122H571.881V110.366H571.165C569.554 113.857 567.049 116.825 563.648 119.271C560.247 121.687 555.952 122.895 550.762 122.895C546.466 122.895 542.648 121.955 539.307 120.076C535.966 118.167 533.341 115.303 531.432 111.485C529.523 107.637 528.568 102.79 528.568 96.9432V53.2727H539.128V96.2273C539.128 101.239 540.53 105.236 543.334 108.219C546.168 111.202 549.777 112.693 554.162 112.693C556.787 112.693 559.457 112.022 562.171 110.68C564.916 109.337 567.213 107.279 569.062 104.505C570.941 101.731 571.881 98.196 571.881 93.9006ZM642.903 68.6648L633.417 71.3494C632.821 69.7685 631.941 68.2322 630.777 66.7408C629.644 65.2195 628.093 63.9666 626.124 62.9822C624.155 61.9979 621.635 61.5057 618.562 61.5057C614.356 61.5057 610.851 62.4751 608.047 64.4141C605.273 66.3232 603.886 68.7543 603.886 71.7074C603.886 74.3324 604.841 76.4055 606.75 77.9268C608.659 79.4482 611.642 80.7159 615.699 81.7301L625.9 84.2358C632.045 85.7273 636.624 88.0092 639.637 91.0817C642.65 94.1243 644.156 98.0469 644.156 102.849C644.156 106.787 643.022 110.307 640.755 113.409C638.518 116.511 635.386 118.957 631.359 120.747C627.332 122.537 622.649 123.432 617.309 123.432C610.299 123.432 604.498 121.911 599.904 118.868C595.31 115.825 592.402 111.381 591.179 105.534L601.201 103.028C602.156 106.727 603.961 109.501 606.615 111.351C609.3 113.2 612.805 114.125 617.13 114.125C622.052 114.125 625.96 113.081 628.853 110.993C631.777 108.875 633.238 106.339 633.238 103.386C633.238 101 632.403 99.0014 630.733 97.3906C629.062 95.75 626.497 94.527 623.037 93.7216L611.582 91.0369C605.288 89.5455 600.665 87.2337 597.711 84.1016C594.788 80.9396 593.326 76.9872 593.326 72.2443C593.326 68.3665 594.415 64.9361 596.593 61.9531C598.8 58.9702 601.798 56.6285 605.586 54.9283C609.405 53.228 613.73 52.3778 618.562 52.3778C625.363 52.3778 630.703 53.8693 634.581 56.8523C638.488 59.8352 641.263 63.7727 642.903 68.6648ZM682.381 53.2727V62.2216H646.764V53.2727H682.381ZM657.145 36.8068H667.704V102.312C667.704 105.295 668.137 107.533 669.002 109.024C669.897 110.486 671.03 111.47 672.403 111.977C673.805 112.455 675.281 112.693 676.832 112.693C677.996 112.693 678.95 112.634 679.696 112.514C680.442 112.365 681.038 112.246 681.486 112.156L683.633 121.642C682.918 121.911 681.918 122.179 680.636 122.447C679.353 122.746 677.727 122.895 675.758 122.895C672.775 122.895 669.852 122.254 666.989 120.971C664.155 119.688 661.798 117.734 659.919 115.109C658.07 112.484 657.145 109.173 657.145 105.176V36.8068Z" fill="#4A5699"/>
<path d="M268.739 59L267.788 59.3106L268.013 60H268.739V59ZM264.846 50.9013L264.009 51.4488L264.013 51.4548L264.017 51.4608L264.846 50.9013ZM259.163 44.7266L258.548 45.5148L258.553 45.5188L259.163 44.7266ZM251.736 40.8338L252.043 39.8821L252.043 39.8821L251.736 40.8338ZM217.193 56.0916L218.094 56.525L218.094 56.525L217.193 56.0916ZM217.238 96.272L216.339 96.7094L216.339 96.7094L217.238 96.272ZM257.195 109.516L257.683 110.389L257.685 110.388L257.195 109.516ZM266.591 99.9411L265.713 99.4613L265.712 99.4635L266.591 99.9411ZM269.991 85.3097L270.197 84.3311L268.991 84.0772V85.3097H269.991ZM273.392 86.0256V87.0256L273.598 85.047L273.392 86.0256ZM245.83 86.0256H244.83V87.0256H245.83V86.0256ZM245.83 76.1818V75.1818H244.83V76.1818H245.83ZM280.73 76.1818H281.73V75.1818H280.73V76.1818ZM275.898 105.713L275.032 105.213L275.03 105.216L275.898 105.713ZM262.653 118.689L263.13 119.568L263.132 119.567L262.653 118.689ZM221.936 117.526L221.406 118.374L221.408 118.375L221.936 117.526ZM207.618 101.239L206.717 101.674L206.719 101.677L207.618 101.239ZM205.425 56.6285L204.478 56.3079L204.477 56.3109L205.425 56.6285ZM213.748 41.7734L214.5 42.4323L214.5 42.4323L213.748 41.7734ZM256.121 31.3033L255.79 32.2472L255.798 32.2499L256.121 31.3033ZM267.352 37.4332L266.723 38.2107L266.73 38.2169L267.352 37.4332ZM275.629 46.8743L274.772 47.3898L274.774 47.3929L275.629 46.8743ZM280.193 59V60H281.399L281.176 58.8153L280.193 59ZM269.689 58.6894C268.679 55.5972 267.342 52.8124 265.675 50.3418L264.017 51.4608C265.571 53.7629 266.83 56.3772 267.788 59.3106L269.689 58.6894ZM265.683 50.3538C264.043 47.8473 262.073 45.7054 259.774 43.9343L258.553 45.5188C260.669 47.1483 262.487 49.1228 264.009 51.4488L265.683 50.3538ZM259.779 43.9384C257.504 42.162 254.922 40.811 252.043 39.8821L251.429 41.7855C254.098 42.6464 256.468 43.8905 258.548 45.5148L259.779 43.9384ZM252.043 39.8821C249.157 38.9512 246.009 38.4915 242.608 38.4915V40.4915C245.829 40.4915 248.766 40.9266 251.429 41.7855L252.043 39.8821ZM242.608 38.4915C236.997 38.4915 231.874 39.9435 227.264 42.8517L228.331 44.5432C232.611 41.8434 237.361 40.4915 242.608 40.4915V38.4915ZM227.264 42.8517C222.638 45.7704 218.986 50.0566 216.292 55.6582L218.094 56.525C220.651 51.2091 224.068 47.2324 228.331 44.5432L227.264 42.8517ZM216.292 55.6582C213.585 61.2874 212.256 68.1417 212.256 76.1818H214.256C214.256 68.3526 215.551 61.8134 218.094 56.525L216.292 55.6582ZM212.256 76.1818C212.256 84.2233 213.6 91.0791 216.339 96.7094L218.137 95.8347C215.566 90.5473 214.256 84.0097 214.256 76.1818H212.256ZM216.339 96.7094C219.065 102.314 222.779 106.6 227.495 109.517L228.547 107.816C224.196 105.125 220.721 101.147 218.137 95.8347L216.339 96.7094ZM227.495 109.517C232.198 112.425 237.483 113.872 243.324 113.872V111.872C237.83 111.872 232.913 110.516 228.547 107.816L227.495 109.517ZM243.324 113.872C248.72 113.872 253.516 112.721 257.683 110.389L256.706 108.644C252.879 110.786 248.428 111.872 243.324 111.872V113.872ZM257.685 110.388C261.878 108.027 265.144 104.698 267.47 100.419L265.712 99.4635C263.564 103.417 260.565 106.471 256.704 108.645L257.685 110.388ZM267.468 100.421C269.83 96.1022 270.991 91.054 270.991 85.3097H268.991C268.991 90.7813 267.886 95.4873 265.713 99.4613L267.468 100.421ZM269.785 86.2882L273.186 87.0041L273.598 85.047L270.197 84.3311L269.785 86.2882ZM273.392 85.0256H245.83V87.0256H273.392V85.0256ZM246.83 86.0256V76.1818H244.83V86.0256H246.83ZM245.83 77.1818H280.73V75.1818H245.83V77.1818ZM279.73 76.1818V86.0256H281.73V76.1818H279.73ZM279.73 86.0256C279.73 93.4272 278.152 99.8112 275.032 105.213L276.764 106.213C280.087 100.459 281.73 93.7176 281.73 86.0256H279.73ZM275.03 105.216C271.93 110.634 267.65 114.827 262.175 117.811L263.132 119.567C268.933 116.406 273.482 111.948 276.766 106.21L275.03 105.216ZM262.177 117.81C256.734 120.763 250.459 122.253 243.324 122.253V124.253C250.745 124.253 257.356 122.701 263.13 119.568L262.177 117.81ZM243.324 122.253C235.373 122.253 228.432 120.384 222.464 116.676L221.408 118.375C227.73 122.303 235.047 124.253 243.324 124.253V122.253ZM222.466 116.677C216.523 112.967 211.872 107.687 208.517 100.801L206.719 101.677C210.224 108.87 215.119 114.448 221.406 118.374L222.466 116.677ZM208.518 100.804C205.197 93.9277 203.517 85.7308 203.517 76.1818H201.517C201.517 85.9624 203.238 94.47 206.717 101.674L208.518 100.804ZM203.517 76.1818C203.517 69.0215 204.475 62.6136 206.374 56.9462L204.477 56.3109C202.498 62.2173 201.517 68.8449 201.517 76.1818H203.517ZM206.373 56.9491C208.305 51.2407 211.018 46.408 214.5 42.4323L212.996 41.1145C209.319 45.3121 206.484 50.3829 204.478 56.3079L206.373 56.9491ZM214.5 42.4323C217.986 38.453 222.104 35.4085 226.862 33.2907L226.049 31.4635C221.022 33.7009 216.669 36.9206 212.996 41.1145L214.5 42.4323ZM226.862 33.2907C231.614 31.1755 236.858 30.1108 242.608 30.1108V28.1108C236.605 28.1108 231.081 29.2237 226.049 31.4635L226.862 33.2907ZM242.608 30.1108C247.338 30.1108 251.73 30.8259 255.79 32.2471L256.451 30.3594C252.159 28.8573 247.542 28.1108 242.608 28.1108V30.1108ZM255.798 32.2499C259.899 33.6458 263.538 35.6337 266.723 38.2106L267.981 36.6558C264.603 33.9231 260.754 31.8243 256.443 30.3566L255.798 32.2499ZM266.73 38.2169C269.946 40.7663 272.626 43.8221 274.772 47.3898L276.486 46.3588C274.218 42.5884 271.379 39.3501 267.973 36.6496L266.73 38.2169ZM274.774 47.3929C276.916 50.9231 278.396 54.8507 279.21 59.1847L281.176 58.8153C280.32 54.2601 278.758 50.1039 276.484 46.3557L274.774 47.3929ZM280.193 58H268.739V60H280.193V58ZM290.743 122H289.743V123H290.743V122ZM290.743 53.2727V52.2727H289.743V53.2727H290.743ZM300.945 53.2727H301.945V52.2727H300.945V53.2727ZM300.945 63.6534H299.945V64.6534H300.945V63.6534ZM301.661 63.6534V64.6534H302.358L302.599 63.9991L301.661 63.6534ZM308.462 55.3757L307.92 54.5355L307.92 54.5355L308.462 55.3757ZM325.107 52.3778H326.107V51.4729L325.207 51.3828L325.107 52.3778ZM325.107 63.1165L324.865 64.0866L326.107 64.3973V63.1165H325.107ZM322.646 62.7138L322.482 63.7002L322.495 63.7023L322.508 63.7042L322.646 62.7138ZM309.715 64.5036L310.182 65.3876L310.186 65.3856L309.715 64.5036ZM303.54 70.2308L302.691 69.7027L302.689 69.7056L303.54 70.2308ZM301.303 122V123H302.303V122H301.303ZM291.743 122V53.2727H289.743V122H291.743ZM290.743 54.2727H300.945V52.2727H290.743V54.2727ZM299.945 53.2727V63.6534H301.945V53.2727H299.945ZM300.945 64.6534H301.661V62.6534H300.945V64.6534ZM302.599 63.9991C303.771 60.8181 305.89 58.2259 309.004 56.2159L307.92 54.5355C304.472 56.7613 302.056 59.6876 300.723 63.3077L302.599 63.9991ZM309.004 56.2159C312.115 54.2081 315.624 53.1989 319.559 53.1989V51.1989C315.261 51.1989 311.372 52.3075 307.92 54.5355L309.004 56.2159ZM319.559 53.1989C320.323 53.1989 321.283 53.2136 322.442 53.2433L322.493 51.2439C321.325 51.214 320.346 51.1989 319.559 51.1989V53.1989ZM322.442 53.2433C323.599 53.2729 324.449 53.317 325.008 53.3729L325.207 51.3828C324.572 51.3194 323.662 51.2739 322.493 51.2439L322.442 53.2433ZM324.107 52.3778V63.1165H326.107V52.3778H324.107ZM325.35 62.1463C324.93 62.0413 324.052 61.9003 322.784 61.7234L322.508 63.7042C323.806 63.8852 324.569 64.0126 324.865 64.0866L325.35 62.1463ZM322.811 61.7274C321.498 61.5086 320.115 61.4006 318.664 61.4006V63.4006C320.016 63.4006 321.288 63.5013 322.482 63.7002L322.811 61.7274ZM318.664 61.4006C315.179 61.4006 312.031 62.133 309.244 63.6215L310.186 65.3856C312.649 64.0702 315.467 63.4006 318.664 63.4006V61.4006ZM309.248 63.6195C306.499 65.0728 304.308 67.1033 302.691 69.7027L304.389 70.759C305.815 68.4663 307.741 66.6787 310.182 65.3876L309.248 63.6195ZM302.689 69.7056C301.092 72.2941 300.303 75.2385 300.303 78.5085H302.303C302.303 75.574 303.006 72.9999 304.391 70.7561L302.689 69.7056ZM300.303 78.5085V122H302.303V78.5085H300.303ZM301.303 121H290.743V123H301.303V121ZM330.064 122H329.064V123H330.064V122ZM330.064 53.2727V52.2727H329.064V53.2727H330.064ZM340.624 53.2727H341.624V52.2727H340.624V53.2727ZM340.624 122V123H341.624V122H340.624ZM330.109 39.7152L329.417 40.4369L329.424 40.4438L330.109 39.7152ZM330.109 29.603L329.424 28.8743L329.417 28.8813L330.109 29.603ZM340.713 29.603L340.021 30.3247L340.029 30.3316L340.713 29.603ZM340.713 39.7152L340.029 38.9865L340.021 38.9935L340.713 39.7152ZM331.064 122V53.2727H329.064V122H331.064ZM330.064 54.2727H340.624V52.2727H330.064V54.2727ZM339.624 53.2727V122H341.624V53.2727H339.624ZM340.624 121H330.064V123H340.624V121ZM335.434 40.8182C333.628 40.8182 332.099 40.2132 330.794 38.9866L329.424 40.4438C331.102 42.0212 333.122 42.8182 335.434 42.8182V40.8182ZM330.801 38.9935C329.53 37.774 328.917 36.3467 328.917 34.6591H326.917C326.917 36.909 327.765 38.8524 329.417 40.4369L330.801 38.9935ZM328.917 34.6591C328.917 32.9715 329.53 31.5442 330.801 30.3247L329.417 28.8813C327.765 30.4658 326.917 32.4092 326.917 34.6591H328.917ZM330.794 30.3316C332.099 29.105 333.628 28.5 335.434 28.5V26.5C333.122 26.5 331.102 27.297 329.424 28.8744L330.794 30.3316ZM335.434 28.5C337.239 28.5 338.749 29.1045 340.021 30.3247L341.406 28.8813C339.754 27.2975 337.745 26.5 335.434 26.5V28.5ZM340.029 30.3316C341.328 31.5531 341.951 32.9784 341.951 34.6591H343.951C343.951 32.4023 343.082 30.4569 341.398 28.8744L340.029 30.3316ZM341.951 34.6591C341.951 36.3398 341.328 37.7651 340.029 38.9866L341.398 40.4438C343.082 38.8613 343.951 36.9159 343.951 34.6591H341.951ZM340.021 38.9935C338.749 40.2137 337.239 40.8182 335.434 40.8182V42.8182C337.745 42.8182 339.754 42.0207 341.406 40.4369L340.021 38.9935ZM363.188 119.092L362.633 119.924L362.637 119.926L363.188 119.092ZM352.897 106.742L351.99 107.163L351.991 107.165L352.897 106.742ZM352.897 69.0227L351.991 68.6001L351.991 68.6001L352.897 69.0227ZM363.233 56.718L362.685 55.8817L362.685 55.8817L363.233 56.718ZM389.14 54.6151L388.641 55.4822L388.653 55.4887L389.14 54.6151ZM395.136 59.6264L394.328 60.2161L394.333 60.2234L394.339 60.2305L395.136 59.6264ZM398.402 64.1903L397.563 64.7353L397.859 65.1903H398.402V64.1903ZM399.297 64.1903V65.1903H400.297V64.1903H399.297ZM399.297 30.3636V29.3636H398.297V30.3636H399.297ZM409.856 30.3636H410.856V29.3636H409.856V30.3636ZM409.856 122V123H410.856V122H409.856ZM399.655 122H398.655V123H399.655V122ZM399.655 111.44H400.655V110.44H399.655V111.44ZM398.402 111.44V110.44H397.845L397.552 110.914L398.402 111.44ZM395.091 116.183L395.886 116.789L395.891 116.783L395.091 116.183ZM388.961 121.239L389.443 122.115L389.451 122.111L388.961 121.239ZM390.527 110.635L391.129 111.433L391.135 111.429L390.527 110.635ZM397.194 101.373L398.127 101.733L398.127 101.731L397.194 101.373ZM397.239 74.1683L396.305 74.5273L396.306 74.5297L397.239 74.1683ZM390.616 65.13L390.019 65.9319L390.024 65.9359L390.616 65.13ZM368.602 65.3089L369.211 66.1022L369.212 66.1013L368.602 65.3089ZM361.935 74.571L361.001 74.2144L361 74.2183L361.935 74.571ZM361.98 100.97L361.043 101.32L361.046 101.328L361.98 100.97ZM368.692 110.456L368.068 111.238L368.077 111.244L368.692 110.456ZM378.356 122.432C372.807 122.432 367.946 121.033 363.739 118.257L362.637 119.926C367.2 122.937 372.452 124.432 378.356 124.432V122.432ZM363.743 118.26C359.527 115.449 356.21 111.482 353.803 106.32L351.991 107.165C354.535 112.621 358.079 116.888 362.633 119.924L363.743 118.26ZM353.804 106.322C351.402 101.141 350.183 94.982 350.183 87.8153H348.183C348.183 95.2055 349.44 101.664 351.99 107.163L353.804 106.322ZM350.183 87.8153C350.183 80.7095 351.402 74.5956 353.803 69.4453L351.991 68.6001C349.44 74.0692 348.183 80.4837 348.183 87.8153H350.183ZM353.803 69.4453C356.209 64.2851 359.538 60.335 363.781 57.5544L362.685 55.8817C358.098 58.888 354.536 63.141 351.991 68.6001L353.803 69.4453ZM363.781 57.5544C368.017 54.7779 372.924 53.3778 378.535 53.3778V51.3778C372.573 51.3778 367.278 52.8712 362.685 55.8817L363.781 57.5544ZM378.535 53.3778C382.915 53.3778 386.255 54.1105 388.642 55.4821L389.638 53.748C386.834 52.1367 383.105 51.3778 378.535 51.3778V53.3778ZM388.653 55.4887C391.187 56.8997 393.062 58.4824 394.328 60.2161L395.943 59.0367C394.465 57.0119 392.342 55.2537 389.626 53.7414L388.653 55.4887ZM394.339 60.2305C395.734 62.0711 396.807 63.5709 397.563 64.7353L399.24 63.6453C398.446 62.4234 397.341 60.8806 395.932 59.0223L394.339 60.2305ZM398.402 65.1903H399.297V63.1903H398.402V65.1903ZM400.297 64.1903V30.3636H398.297V64.1903H400.297ZM399.297 31.3636H409.856V29.3636H399.297V31.3636ZM408.856 30.3636V122H410.856V30.3636H408.856ZM409.856 121H399.655V123H409.856V121ZM400.655 122V111.44H398.655V122H400.655ZM399.655 110.44H398.402V112.44H399.655V110.44ZM397.552 110.914C396.798 112.131 395.714 113.685 394.291 115.583L395.891 116.783C397.331 114.863 398.454 113.255 399.252 111.967L397.552 110.914ZM394.295 115.577C392.966 117.321 391.04 118.924 388.471 120.368L389.451 122.111C392.191 120.571 394.352 118.804 395.886 116.789L394.295 115.577ZM388.479 120.363C386.024 121.715 382.674 122.432 378.356 122.432V124.432C382.868 124.432 386.588 123.687 389.443 122.115L388.479 120.363ZM379.788 114.946C384.206 114.946 388.006 113.791 391.129 111.433L389.924 109.837C387.201 111.893 383.842 112.946 379.788 112.946V114.946ZM391.135 111.429C394.225 109.064 396.549 105.817 398.127 101.733L396.261 101.012C394.796 104.804 392.676 107.731 389.919 109.841L391.135 111.429ZM398.127 101.731C399.701 97.6271 400.476 92.9228 400.476 87.6364H398.476C398.476 92.7306 397.729 97.184 396.26 101.015L398.127 101.731ZM400.476 87.6364C400.476 82.4111 399.716 77.7944 398.171 73.8069L396.306 74.5297C397.744 78.2382 398.476 82.6003 398.476 87.6364H400.476ZM398.172 73.8093C396.622 69.7796 394.307 66.6009 391.208 64.3241L390.024 65.9359C392.772 67.9545 394.872 70.8014 396.305 74.5273L398.172 73.8093ZM391.214 64.328C388.088 62 384.259 60.8636 379.788 60.8636V62.8636C383.908 62.8636 387.298 63.9048 390.019 65.9319L391.214 64.328ZM379.788 60.8636C375.136 60.8636 371.181 62.061 367.992 64.5166L369.212 66.1013C371.989 63.9632 375.491 62.8636 379.788 62.8636V60.8636ZM367.993 64.5157C364.876 66.9089 362.55 70.1558 361.001 74.2144L362.87 74.9276C364.303 71.1709 366.422 68.2431 369.211 66.1022L367.993 64.5157ZM361 74.2183C359.489 78.2259 358.743 82.7032 358.743 87.6364H360.743C360.743 82.9048 361.458 78.6718 362.871 74.9237L361 74.2183ZM358.743 87.6364C358.743 92.6305 359.504 97.1957 361.043 101.32L362.917 100.621C361.473 96.7504 360.743 92.4263 360.743 87.6364H358.743ZM361.046 101.328C362.623 105.441 364.959 108.757 368.068 111.238L369.315 109.674C366.518 107.442 364.379 104.434 362.914 100.612L361.046 101.328ZM368.077 111.244C371.264 113.73 375.189 114.946 379.788 114.946V112.946C375.558 112.946 372.086 111.835 369.307 109.667L368.077 111.244ZM419.523 40.2074H418.523V41.2074H419.523V40.2074ZM419.523 30.3636V29.3636H418.523V30.3636H419.523ZM488.25 30.3636H489.25V29.3636H488.25V30.3636ZM488.25 40.2074V41.2074H489.25V40.2074H488.25ZM459.435 40.2074V39.2074H458.435V40.2074H459.435ZM459.435 122V123H460.435V122H459.435ZM448.338 122H447.338V123H448.338V122ZM448.338 40.2074H449.338V39.2074H448.338V40.2074ZM420.523 40.2074V30.3636H418.523V40.2074H420.523ZM419.523 31.3636H488.25V29.3636H419.523V31.3636ZM487.25 30.3636V40.2074H489.25V30.3636H487.25ZM488.25 39.2074H459.435V41.2074H488.25V39.2074ZM458.435 40.2074V122H460.435V40.2074H458.435ZM459.435 121H448.338V123H459.435V121ZM449.338 122V40.2074H447.338V122H449.338ZM448.338 39.2074H419.523V41.2074H448.338V39.2074ZM489.248 122H488.248V123H489.248V122ZM489.248 53.2727V52.2727H488.248V53.2727H489.248ZM499.449 53.2727H500.449V52.2727H499.449V53.2727ZM499.449 63.6534H498.449V64.6534H499.449V63.6534ZM500.165 63.6534V64.6534H500.862L501.104 63.9991L500.165 63.6534ZM506.966 55.3757L506.424 54.5355L506.424 54.5355L506.966 55.3757ZM523.611 52.3778H524.611V51.4729L523.711 51.3828L523.611 52.3778ZM523.611 63.1165L523.369 64.0866L524.611 64.3973V63.1165H523.611ZM521.15 62.7138L520.986 63.7002L520.999 63.7023L521.012 63.7042L521.15 62.7138ZM508.219 64.5036L508.687 65.3876L508.69 65.3856L508.219 64.5036ZM502.044 70.2308L501.195 69.7027L501.194 69.7056L502.044 70.2308ZM499.807 122V123H500.807V122H499.807ZM490.248 122V53.2727H488.248V122H490.248ZM489.248 54.2727H499.449V52.2727H489.248V54.2727ZM498.449 53.2727V63.6534H500.449V53.2727H498.449ZM499.449 64.6534H500.165V62.6534H499.449V64.6534ZM501.104 63.9991C502.276 60.8181 504.395 58.2259 507.509 56.2159L506.424 54.5355C502.976 56.7613 500.561 59.6876 499.227 63.3077L501.104 63.9991ZM507.509 56.2159C510.619 54.2081 514.128 53.1989 518.063 53.1989V51.1989C513.765 51.1989 509.876 52.3075 506.424 54.5355L507.509 56.2159ZM518.063 53.1989C518.827 53.1989 519.787 53.2136 520.946 53.2433L520.997 51.2439C519.829 51.214 518.85 51.1989 518.063 51.1989V53.1989ZM520.946 53.2433C522.103 53.2729 522.953 53.317 523.512 53.3729L523.711 51.3828C523.076 51.3194 522.167 51.2739 520.997 51.2439L520.946 53.2433ZM522.611 52.3778V63.1165H524.611V52.3778H522.611ZM523.854 62.1463C523.434 62.0413 522.556 61.9003 521.288 61.7234L521.012 63.7042C522.31 63.8852 523.073 64.0126 523.369 64.0866L523.854 62.1463ZM521.315 61.7274C520.002 61.5086 518.62 61.4006 517.168 61.4006V63.4006C518.521 63.4006 519.793 63.5013 520.986 63.7002L521.315 61.7274ZM517.168 61.4006C513.683 61.4006 510.535 62.133 507.748 63.6215L508.69 65.3856C511.153 64.0702 513.971 63.4006 517.168 63.4006V61.4006ZM507.752 63.6195C505.003 65.0728 502.812 67.1033 501.195 69.7027L502.894 70.759C504.32 68.4663 506.245 66.6787 508.687 65.3876L507.752 63.6195ZM501.194 69.7056C499.596 72.2941 498.807 75.2385 498.807 78.5085H500.807C500.807 75.574 501.51 72.9999 502.895 70.7561L501.194 69.7056ZM498.807 78.5085V122H500.807V78.5085H498.807ZM499.807 121H489.248V123H499.807V121ZM571.881 53.2727V52.2727H570.881V53.2727H571.881ZM582.441 53.2727H583.441V52.2727H582.441V53.2727ZM582.441 122V123H583.441V122H582.441ZM571.881 122H570.881V123H571.881V122ZM571.881 110.366H572.881V109.366H571.881V110.366ZM571.165 110.366V109.366H570.525L570.257 109.947L571.165 110.366ZM563.648 119.271L564.227 120.086L564.232 120.082L563.648 119.271ZM539.307 120.076L538.811 120.944L538.817 120.948L539.307 120.076ZM531.432 111.485L530.536 111.93L530.538 111.932L531.432 111.485ZM528.568 53.2727V52.2727H527.568V53.2727H528.568ZM539.128 53.2727H540.128V52.2727H539.128V53.2727ZM543.334 108.219L542.605 108.904L542.609 108.907L543.334 108.219ZM562.171 110.68L561.732 109.781L561.728 109.783L562.171 110.68ZM569.062 104.505L568.234 103.944L568.23 103.95L569.062 104.505ZM572.881 93.9006V53.2727H570.881V93.9006H572.881ZM571.881 54.2727H582.441V52.2727H571.881V54.2727ZM581.441 53.2727V122H583.441V53.2727H581.441ZM582.441 121H571.881V123H582.441V121ZM572.881 122V110.366H570.881V122H572.881ZM571.881 109.366H571.165V111.366H571.881V109.366ZM570.257 109.947C568.725 113.267 566.337 116.104 563.064 118.459L564.232 120.082C567.76 117.545 570.384 114.446 572.073 110.786L570.257 109.947ZM563.069 118.455C559.875 120.725 555.796 121.895 550.762 121.895V123.895C556.108 123.895 560.62 122.649 564.227 120.086L563.069 118.455ZM550.762 121.895C546.617 121.895 542.971 120.99 539.797 119.204L538.817 120.948C542.325 122.921 546.316 123.895 550.762 123.895V121.895ZM539.803 119.208C536.652 117.407 534.157 114.7 532.327 111.038L530.538 111.932C532.525 115.907 535.28 118.927 538.811 120.944L539.803 119.208ZM532.328 111.041C530.507 107.371 529.568 102.688 529.568 96.9432H527.568C527.568 102.891 528.539 107.903 530.536 111.93L532.328 111.041ZM529.568 96.9432V53.2727H527.568V96.9432H529.568ZM528.568 54.2727H539.128V52.2727H528.568V54.2727ZM538.128 53.2727V96.2273H540.128V53.2727H538.128ZM538.128 96.2273C538.128 101.433 539.59 105.696 542.605 108.904L544.063 107.534C541.47 104.776 540.128 101.044 540.128 96.2273H538.128ZM542.609 108.907C545.645 112.103 549.523 113.693 554.162 113.693V111.693C550.031 111.693 546.691 110.3 544.059 107.53L542.609 108.907ZM554.162 113.693C556.963 113.693 559.784 112.976 562.615 111.576L561.728 109.783C559.13 111.068 556.611 111.693 554.162 111.693V113.693ZM562.611 111.578C565.528 110.151 567.956 107.967 569.894 105.06L568.23 103.95C566.47 106.591 564.303 108.524 561.732 109.781L562.611 111.578ZM569.89 105.066C571.909 102.085 572.881 98.3399 572.881 93.9006H570.881C570.881 98.0522 569.973 101.377 568.234 103.944L569.89 105.066ZM642.903 68.6648L643.175 69.627L644.185 69.3413L643.851 68.3468L642.903 68.6648ZM633.417 71.3494L632.482 71.7025L632.806 72.5617L633.69 72.3116L633.417 71.3494ZM630.777 66.7408L629.976 67.3382L629.982 67.3471L629.989 67.3558L630.777 66.7408ZM626.124 62.9822L626.571 62.0878L626.571 62.0878L626.124 62.9822ZM608.047 64.4141L608.614 65.2378L608.616 65.2366L608.047 64.4141ZM606.75 77.9268L606.127 78.7089L606.127 78.7089L606.75 77.9268ZM615.699 81.7301L615.456 82.7003L615.46 82.7012L615.699 81.7301ZM625.9 84.2358L625.662 85.2069L625.664 85.2076L625.9 84.2358ZM639.637 91.0817L638.923 91.7818L638.926 91.7853L639.637 91.0817ZM640.755 113.409L639.948 112.819L639.944 112.824L640.755 113.409ZM599.904 118.868L600.456 118.034L600.456 118.034L599.904 118.868ZM591.179 105.534L590.936 104.564L590.003 104.797L590.2 105.739L591.179 105.534ZM601.201 103.028L602.17 102.779L601.922 101.818L600.959 102.058L601.201 103.028ZM606.615 111.351L606.044 112.171L606.048 112.174L606.615 111.351ZM628.853 110.993L629.439 111.804L629.44 111.803L628.853 110.993ZM630.733 97.3906L630.032 98.1041L630.039 98.1105L630.733 97.3906ZM623.037 93.7216L622.808 94.6952L622.81 94.6956L623.037 93.7216ZM611.582 91.0369L611.352 92.01L611.354 92.0105L611.582 91.0369ZM597.711 84.1016L596.977 84.7805L596.984 84.7876L597.711 84.1016ZM596.593 61.9531L595.789 61.3583L595.785 61.3635L596.593 61.9531ZM605.586 54.9283L605.18 54.0147L605.177 54.0159L605.586 54.9283ZM634.581 56.8523L633.971 57.6449L633.974 57.6471L634.581 56.8523ZM642.631 67.7026L633.145 70.3872L633.69 72.3116L643.175 69.627L642.631 67.7026ZM634.353 70.9964C633.717 69.3107 632.784 67.6873 631.566 66.1257L629.989 67.3558C631.098 68.7772 631.925 70.2263 632.482 71.7025L634.353 70.9964ZM631.579 66.1433C630.339 64.478 628.657 63.1309 626.571 62.0878L625.677 63.8767C627.528 64.8023 628.949 65.9609 629.976 67.3382L631.579 66.1433ZM626.571 62.0878C624.42 61.0121 621.732 60.5057 618.562 60.5057V62.5057C621.537 62.5057 623.891 62.9836 625.677 63.8767L626.571 62.0878ZM618.562 60.5057C614.201 60.5057 610.485 61.5125 607.479 63.5916L608.616 65.2366C611.217 63.4378 614.512 62.5057 618.562 62.5057V60.5057ZM607.48 63.5903C604.479 65.6556 602.886 68.3749 602.886 71.7074H604.886C604.886 69.1336 606.067 66.9907 608.614 65.2378L607.48 63.5903ZM602.886 71.7074C602.886 74.6105 603.959 76.982 606.127 78.7089L607.373 77.1448C605.722 75.8291 604.886 74.0543 604.886 71.7074H602.886ZM606.127 78.7089C608.2 80.3615 611.346 81.6727 615.456 82.7003L615.941 80.76C611.938 79.7591 609.117 78.5348 607.373 77.1448L606.127 78.7089ZM615.46 82.7012L625.662 85.2069L626.139 83.2647L615.937 80.759L615.46 82.7012ZM625.664 85.2076C631.708 86.6744 636.089 88.8915 638.923 91.7818L640.351 90.3815C637.159 87.127 632.383 84.7801 626.136 83.264L625.664 85.2076ZM638.926 91.7853C641.73 94.6172 643.156 98.2754 643.156 102.849H645.156C645.156 97.8183 643.569 93.6314 640.347 90.3781L638.926 91.7853ZM643.156 102.849C643.156 106.58 642.087 109.893 639.948 112.819L641.563 113.999C643.958 110.721 645.156 106.993 645.156 102.849H643.156ZM639.944 112.824C637.825 115.762 634.843 118.104 630.953 119.833L631.765 121.661C635.929 119.81 639.211 117.26 641.567 113.994L639.944 112.824ZM630.953 119.833C627.078 121.556 622.538 122.432 617.309 122.432V124.432C622.76 124.432 627.586 123.518 631.765 121.661L630.953 119.833ZM617.309 122.432C610.443 122.432 604.847 120.942 600.456 118.034L599.352 119.702C604.148 122.879 610.156 124.432 617.309 124.432V122.432ZM600.456 118.034C596.101 115.15 593.332 110.942 592.158 105.329L590.2 105.739C591.472 111.819 594.519 116.501 599.352 119.702L600.456 118.034ZM591.421 106.504L601.444 103.999L600.959 102.058L590.936 104.564L591.421 106.504ZM600.233 103.278C601.236 107.165 603.159 110.161 606.044 112.171L607.187 110.53C604.763 108.841 603.076 106.29 602.17 102.779L600.233 103.278ZM606.048 112.174C608.946 114.171 612.668 115.125 617.13 115.125V113.125C612.943 113.125 609.654 112.23 607.183 110.527L606.048 112.174ZM617.13 115.125C622.185 115.125 626.321 114.054 629.439 111.804L628.268 110.182C625.599 112.108 621.92 113.125 617.13 113.125V115.125ZM629.44 111.803C632.558 109.544 634.238 106.733 634.238 103.386H632.238C632.238 105.946 630.995 108.206 628.267 110.183L629.44 111.803ZM634.238 103.386C634.238 100.737 633.299 98.476 631.427 96.6708L630.039 98.1105C631.507 99.5269 632.238 101.263 632.238 103.386H634.238ZM631.433 96.6772C629.581 94.8576 626.817 93.5747 623.263 92.7476L622.81 94.6956C626.177 95.4793 628.544 96.6424 630.032 98.1041L631.433 96.6772ZM623.265 92.748L611.81 90.0633L611.354 92.0105L622.808 94.6952L623.265 92.748ZM611.813 90.0639C605.619 88.5963 601.206 86.3507 598.439 83.4155L596.984 84.7876C600.123 88.1166 604.957 90.4947 611.352 92.01L611.813 90.0639ZM598.446 83.4227C595.711 80.4649 594.326 76.7632 594.326 72.2443H592.326C592.326 77.2112 593.865 81.4143 596.977 84.7804L598.446 83.4227ZM594.326 72.2443C594.326 68.5671 595.354 65.3456 597.4 62.5427L595.785 61.3635C593.476 64.5266 592.326 68.1658 592.326 72.2443H594.326ZM597.397 62.548C599.49 59.7187 602.345 57.4792 605.996 55.8406L605.177 54.0159C601.251 55.7779 598.11 58.2216 595.789 61.3583L597.397 62.548ZM605.993 55.8418C609.665 54.2067 613.848 53.3778 618.562 53.3778V51.3778C613.611 51.3778 609.144 52.2492 605.18 54.0147L605.993 55.8418ZM618.562 53.3778C625.227 53.3778 630.325 54.8401 633.971 57.6449L635.19 56.0596C631.081 52.8985 625.499 51.3778 618.562 51.3778V53.3778ZM633.974 57.6471C637.715 60.5026 640.375 64.2703 641.955 68.9827L643.851 68.3468C642.15 63.2752 639.262 59.1678 635.187 56.0574L633.974 57.6471ZM682.381 53.2727H683.381V52.2727H682.381V53.2727ZM682.381 62.2216V63.2216H683.381V62.2216H682.381ZM646.764 62.2216H645.764V63.2216H646.764V62.2216ZM646.764 53.2727V52.2727H645.764V53.2727H646.764ZM657.145 36.8068V35.8068H656.145V36.8068H657.145ZM667.704 36.8068H668.704V35.8068H667.704V36.8068ZM669.002 109.024L668.137 109.526L668.143 109.536L668.149 109.546L669.002 109.024ZM672.403 111.977L672.056 112.915L672.068 112.92L672.08 112.924L672.403 111.977ZM679.696 112.514L679.854 113.502L679.873 113.499L679.892 113.495L679.696 112.514ZM681.486 112.156L682.461 111.935L682.246 110.984L681.29 111.176L681.486 112.156ZM683.633 121.642L683.985 122.578L684.801 122.272L684.609 121.421L683.633 121.642ZM680.636 122.447L680.431 121.469L680.42 121.471L680.409 121.473L680.636 122.447ZM666.989 120.971L666.576 121.882L666.58 121.884L666.989 120.971ZM659.919 115.109L659.101 115.685L659.106 115.691L659.919 115.109ZM681.381 53.2727V62.2216H683.381V53.2727H681.381ZM682.381 61.2216H646.764V63.2216H682.381V61.2216ZM647.764 62.2216V53.2727H645.764V62.2216H647.764ZM646.764 54.2727H682.381V52.2727H646.764V54.2727ZM657.145 37.8068H667.704V35.8068H657.145V37.8068ZM666.704 36.8068V102.312H668.704V36.8068H666.704ZM666.704 102.312C666.704 105.359 667.14 107.808 668.137 109.526L669.867 108.522C669.134 107.258 668.704 105.232 668.704 102.312H666.704ZM668.149 109.546C669.14 111.165 670.438 112.317 672.056 112.915L672.749 111.039C671.623 110.623 670.654 109.806 669.855 108.502L668.149 109.546ZM672.08 112.924C673.591 113.438 675.177 113.693 676.832 113.693V111.693C675.386 111.693 674.018 111.471 672.725 111.031L672.08 112.924ZM676.832 113.693C678.024 113.693 679.036 113.633 679.854 113.502L679.538 111.527C678.864 111.635 677.968 111.693 676.832 111.693V113.693ZM679.892 113.495C680.638 113.346 681.234 113.226 681.682 113.137L681.29 111.176C680.842 111.265 680.246 111.384 679.5 111.534L679.892 113.495ZM680.51 112.377L682.658 121.863L684.609 121.421L682.461 111.935L680.51 112.377ZM683.282 120.706C682.636 120.948 681.693 121.204 680.431 121.469L680.84 123.426C682.143 123.154 683.199 122.873 683.985 122.578L683.282 120.706ZM680.409 121.473C679.227 121.748 677.685 121.895 675.758 121.895V123.895C677.77 123.895 679.478 123.743 680.862 123.421L680.409 121.473ZM675.758 121.895C672.924 121.895 670.139 121.286 667.397 120.058L666.58 121.884C669.565 123.221 672.627 123.895 675.758 123.895V121.895ZM667.401 120.06C664.734 118.853 662.513 117.015 660.732 114.527L659.106 115.691C661.083 118.454 663.576 120.524 666.576 121.882L667.401 120.06ZM660.736 114.533C659.032 112.114 658.145 109.018 658.145 105.176H656.145C656.145 109.329 657.107 112.854 659.101 115.685L660.736 114.533ZM658.145 105.176V36.8068H656.145V105.176H658.145Z" fill="black" mask="url(#path-7-outside-1_2_12)"/>
</svg>
